<mxfile host="app.diagrams.net" agent="Mozilla/5.0 (Windows NT 10.0; Win64; x64) AppleWebKit/537.36 (KHTML, like Gecko) Chrome/134.0.0.0 Safari/537.36" version="26.1.1">
  <diagram name="Page-1" id="bPSGD1P9Wo8Ul51fc5RX">
    <mxGraphModel>
      <root>
        <mxCell id="0" />
        <mxCell id="1" parent="0" />
        <mxCell id="2" value="User" style="whiteSpace=wrap;strokeWidth=2;" vertex="1" parent="1">
          <mxGeometry x="8" y="75" width="92" height="54" as="geometry" />
        </mxCell>
        <mxCell id="3" value="Device" style="ellipse;aspect=fixed;strokeWidth=2;whiteSpace=wrap;" vertex="1" parent="1">
          <mxGeometry x="341" y="45" width="63" height="63" as="geometry" />
        </mxCell>
        <mxCell id="4" value="SSH Server" style="rhombus;strokeWidth=2;whiteSpace=wrap;" vertex="1" parent="1">
          <mxGeometry x="644" y="56" width="130" height="130" as="geometry" />
        </mxCell>
        <mxCell id="5" value="Database" style="ellipse;aspect=fixed;strokeWidth=2;whiteSpace=wrap;" vertex="1" parent="1">
          <mxGeometry x="1027" y="50" width="80" height="80" as="geometry" />
        </mxCell>
        <mxCell id="6" value="Device Owner" style="shape=cylinder3;boundedLbl=1;backgroundOutline=1;size=10;strokeWidth=2;whiteSpace=wrap;" vertex="1" parent="1">
          <mxGeometry x="1011" y="189" width="114" height="75" as="geometry" />
        </mxCell>
        <mxCell id="7" value="Request Device Authorization" style="curved=1;startArrow=none;endArrow=block;exitX=1;exitY=0.21;entryX=0;entryY=0.43;" edge="1" parent="1" source="2" target="3">
          <mxGeometry relative="1" as="geometry">
            <Array as="points">
              <mxPoint x="197" y="53" />
            </Array>
          </mxGeometry>
        </mxCell>
        <mxCell id="8" value="Generate PublicKey" style="curved=1;startArrow=none;endArrow=block;exitX=0.99;exitY=0.5;entryX=0;entryY=0.36;" edge="1" parent="1" source="3" target="4">
          <mxGeometry relative="1" as="geometry">
            <Array as="points">
              <mxPoint x="547" y="76" />
            </Array>
          </mxGeometry>
        </mxCell>
        <mxCell id="9" value="Prepare Device Metadata" style="curved=1;startArrow=none;endArrow=block;exitX=1;exitY=0.22;entryX=0.01;entryY=0.3;" edge="1" parent="1" source="4" target="5">
          <mxGeometry relative="1" as="geometry">
            <Array as="points">
              <mxPoint x="892" y="19" />
            </Array>
          </mxGeometry>
        </mxCell>
        <mxCell id="10" value="Save Metadata and PublicKey" style="curved=1;startArrow=none;endArrow=block;exitX=0.01;exitY=0.44;entryX=1;entryY=0.36;" edge="1" parent="1" source="5" target="4">
          <mxGeometry relative="1" as="geometry">
            <Array as="points">
              <mxPoint x="892" y="71" />
            </Array>
          </mxGeometry>
        </mxCell>
        <mxCell id="11" value="Generate QR Code Secret" style="curved=1;startArrow=none;endArrow=block;exitX=0.01;exitY=0.59;entryX=1;entryY=0.5;" edge="1" parent="1" source="5" target="4">
          <mxGeometry relative="1" as="geometry">
            <Array as="points">
              <mxPoint x="892" y="122" />
            </Array>
          </mxGeometry>
        </mxCell>
        <mxCell id="12" value="Send QR Code Secret" style="curved=1;startArrow=none;endArrow=block;exitX=0;exitY=0.62;entryX=1;entryY=0.84;" edge="1" parent="1" source="4" target="2">
          <mxGeometry relative="1" as="geometry">
            <Array as="points">
              <mxPoint x="547" y="159" />
              <mxPoint x="197" y="159" />
            </Array>
          </mxGeometry>
        </mxCell>
        <mxCell id="13" value="Onboarding Pending" style="curved=1;startArrow=none;endArrow=block;exitX=1;exitY=0.62;entryX=0;entryY=0.23;" edge="1" parent="1" source="4" target="6">
          <mxGeometry relative="1" as="geometry">
            <Array as="points">
              <mxPoint x="892" y="165" />
            </Array>
          </mxGeometry>
        </mxCell>
        <mxCell id="14" value="Scan QR Code and Enter Secret" style="curved=1;startArrow=none;endArrow=block;exitX=0;exitY=0.52;entryX=1;entryY=0.8;" edge="1" parent="1" source="6" target="4">
          <mxGeometry relative="1" as="geometry">
            <Array as="points">
              <mxPoint x="892" y="232" />
            </Array>
          </mxGeometry>
        </mxCell>
        <mxCell id="15" value="Verify Validity" style="curved=1;startArrow=none;endArrow=block;exitX=0;exitY=0.72;entryX=0.99;entryY=0.82;" edge="1" parent="1" source="4" target="3">
          <mxGeometry relative="1" as="geometry">
            <Array as="points">
              <mxPoint x="547" y="191" />
            </Array>
          </mxGeometry>
        </mxCell>
        <mxCell id="16" value="SSH using PublicKey" style="curved=1;startArrow=none;endArrow=block;exitX=1;exitY=0.52;entryX=0;entryY=0.58;" edge="1" parent="1" source="2" target="3">
          <mxGeometry relative="1" as="geometry">
            <Array as="points">
              <mxPoint x="197" y="105" />
            </Array>
          </mxGeometry>
        </mxCell>
      </root>
    </mxGraphModel>
  </diagram>
</mxfile>
